<?xml version="1.0" encoding="UTF-8"?>
<svg xmlns="http://www.w3.org/2000/svg" xmlns:xlink="http://www.w3.org/1999/xlink" viewBox="0 0 100 100" width="100px" height="100px">
<g id="surface135156235">
<path style=" stroke:none;fill-rule:nonzero;fill:rgb(100%,100%,100%);fill-opacity:1;" d="M 50 100 C 22.386719 100 0 77.613281 0 50 C 0 22.386719 22.386719 0 50 0 C 77.613281 0 100 22.386719 100 50 C 100 77.613281 77.613281 100 50 100 Z M 50 100 "/>
<path style=" stroke:none;fill-rule:nonzero;fill:rgb(0%,0%,0%);fill-opacity:1;" d="M 11.921875 0.859375 C 4.148438 0.859375 -1.5 5.519531 -1.5 11.925781 C -1.5 18.355469 4.28125 23.21875 11.921875 23.21875 C 19.691406 23.21875 25.339844 18.46875 25.339844 11.792969 C 24.980469 5.363281 19.445312 0.859375 11.921875 0.859375 Z M 0.71875 27.71875 C -0.511719 27.71875 -1.519531 28.726562 -1.519531 29.957031 L -1.519531 94.917969 C -1.519531 96.152344 -0.511719 97.160156 0.71875 97.160156 L 23.121094 97.160156 C 24.351562 97.160156 25.359375 96.152344 25.359375 94.917969 L 25.359375 29.957031 C 25.359375 28.726562 24.351562 27.71875 23.121094 27.71875 Z M 34.320312 27.71875 C 33.089844 27.71875 32.078125 28.726562 32.078125 29.957031 L 32.078125 94.917969 C 32.078125 96.152344 33.089844 97.160156 34.320312 97.160156 L 54.480469 97.160156 C 55.714844 97.160156 56.71875 96.15625 56.71875 94.917969 L 56.71875 60.199219 C 56.71875 54.890625 60.796875 50.566406 65.996094 50.164062 C 66.265625 50.117188 66.53125 50.117188 66.800781 50.117188 C 67.070312 50.117188 67.335938 50.117188 67.605469 50.164062 C 72.800781 50.566406 76.878906 54.890625 76.878906 60.199219 L 76.878906 94.917969 C 76.878906 96.15625 77.882812 97.160156 79.121094 97.160156 L 99.28125 97.160156 C 100.511719 97.160156 101.519531 96.152344 101.519531 94.917969 L 101.519531 56.839844 C 101.519531 42.347656 93.746094 27.71875 76.40625 27.71875 C 68.523438 27.71875 62.566406 30.765625 58.960938 33.296875 L 58.960938 29.957031 C 58.960938 28.726562 57.953125 27.71875 56.71875 27.71875 Z M 34.320312 27.71875 "/>
</g>
</svg>
